<svg xmlns="http://www.w3.org/2000/svg" style="display:none">
  <symbol id="i-book" viewBox="0 0 24 24"><path d="M4 4h7a3 3 0 0 1 3 3v13"></path><path d="M20 4h-7a3 3 0 0 0-3 3v13"></path><path d="M4 4v15h7"></path><path d="M20 4v15h-7"></path></symbol>
  <symbol id="i-play" viewBox="0 0 24 24"><path d="M7 4l12 8-12 8V4z"></path></symbol>
  <symbol id="i-quiz" viewBox="0 0 24 24"><circle cx="12" cy="12" r="9"></circle><path d="M9 9a3 3 0 1 1 4.5 2.6c-.9.5-1.5 1-1.5 2.4"></path><circle cx="12" cy="17" r=".5" fill="currentColor"></circle></symbol>
  <symbol id="i-check" viewBox="0 0 24 24"><path d="M4 12l5 5L20 6"></path></symbol>
  <symbol id="i-lock" viewBox="0 0 24 24"><rect x="4" y="10" width="16" height="11" rx="2"></rect><path d="M8 10V7a4 4 0 0 1 8 0v3"></path></symbol>
  <symbol id="i-flame" viewBox="0 0 24 24"><path d="M12 3c2 4-3 6-3 10a5 5 0 0 0 10 0c0-3-2-5-3-7-1 2-3 2-4 1-1-1-1-3 0-4z"></path></symbol>
  <symbol id="i-award" viewBox="0 0 24 24"><circle cx="12" cy="10" r="6"></circle><path d="M8 14l-2 7 6-3 6 3-2-7"></path></symbol>
  <symbol id="i-compass" viewBox="0 0 24 24"><circle cx="12" cy="12" r="9"></circle><path d="M15 9l-2 5-5 2 2-5z"></path></symbol>
  <symbol id="i-clock" viewBox="0 0 24 24"><circle cx="12" cy="12" r="9"></circle><path d="M12 7v5l3 2"></path></symbol>
  <symbol id="i-note" viewBox="0 0 24 24"><path d="M5 4h9l5 5v11a1 1 0 0 1-1 1H5a1 1 0 0 1-1-1V5a1 1 0 0 1 1-1z"></path><path d="M14 4v5h5"></path><path d="M8 13h7M8 17h5"></path></symbol>
  <symbol id="i-search" viewBox="0 0 24 24"><circle cx="11" cy="11" r="7"></circle><path d="M20 20l-4-4"></path></symbol>
  <symbol id="i-user" viewBox="0 0 24 24"><circle cx="12" cy="8" r="4"></circle><path d="M4 21a8 8 0 0 1 16 0"></path></symbol>
  <symbol id="i-filter" viewBox="0 0 24 24"><path d="M4 5h16l-6 8v6l-4 2v-8z"></path></symbol>
  <symbol id="i-arrow-right" viewBox="0 0 24 24"><path d="M5 12h14"></path><path d="M13 6l6 6-6 6"></path></symbol>
  <symbol id="i-chevron" viewBox="0 0 24 24"><path d="M9 6l6 6-6 6"></path></symbol>
  <symbol id="i-star" viewBox="0 0 24 24"><path d="M12 3l2.8 6 6.2.8-4.5 4.4 1 6.2L12 17.5 6.5 20.4l1-6.2L3 9.8l6.2-.8z"></path></symbol>
  <symbol id="i-drop" viewBox="0 0 24 24"><path d="M12 3c3 4 6 7 6 11a6 6 0 0 1-12 0c0-4 3-7 6-11z"></path></symbol>
  <symbol id="i-target" viewBox="0 0 24 24"><circle cx="12" cy="12" r="9"></circle><circle cx="12" cy="12" r="5"></circle><circle cx="12" cy="12" r="1.5" fill="currentColor"></circle></symbol>
  <symbol id="i-spark" viewBox="0 0 24 24"><path d="M12 3v4M12 17v4M3 12h4M17 12h4M6 6l2.5 2.5M15.5 15.5L18 18M6 18l2.5-2.5M15.5 8.5L18 6"></path></symbol>
  <symbol id="i-heart" viewBox="0 0 24 24"><path d="M12 20s-7-4.5-7-10a4 4 0 0 1 7-2.6A4 4 0 0 1 19 10c0 5.5-7 10-7 10z"></path></symbol>
  <symbol id="i-plus" viewBox="0 0 24 24"><path d="M12 5v14M5 12h14"></path></symbol>
  <symbol id="i-sun" viewBox="0 0 24 24"><circle cx="12" cy="12" r="4"></circle><path d="M12 3v2M12 19v2M3 12h2M19 12h2M6 6l1.5 1.5M16.5 16.5L18 18M6 18l1.5-1.5M16.5 7.5L18 6"></path></symbol>
  <symbol id="i-moon" viewBox="0 0 24 24"><path d="M20 15a8 8 0 0 1-11-11 8 8 0 1 0 11 11z"></path></symbol>
  <symbol id="i-share" viewBox="0 0 24 24"><circle cx="18" cy="5" r="3"></circle><circle cx="6" cy="12" r="3"></circle><circle cx="18" cy="19" r="3"></circle><path d="M8.6 10.5l6.8-4M8.6 13.5l6.8 4"></path></symbol>
  <symbol id="i-download" viewBox="0 0 24 24"><path d="M12 4v12M6 12l6 6 6-6M5 20h14"></path></symbol>
  <symbol id="i-linkedin" viewBox="0 0 24 24"><rect x="3" y="3" width="18" height="18" rx="2"></rect><path d="M8 10v7M8 7.5v0M12 17v-4a2 2 0 0 1 4 0v4M12 10v7"></path></symbol>
  <symbol id="i-link" viewBox="0 0 24 24"><path d="M10 14a5 5 0 0 1 0-7l2-2a5 5 0 0 1 7 7l-2 2"></path><path d="M14 10a5 5 0 0 1 0 7l-2 2a5 5 0 0 1-7-7l2-2"></path></symbol>
  <symbol id="i-settings" viewBox="0 0 24 24"><circle cx="12" cy="12" r="3"></circle><path d="M19.4 15a1.7 1.7 0 0 0 .3 1.9l.1.1a2 2 0 1 1-2.8 2.8l-.1-.1a1.7 1.7 0 0 0-1.9-.3 1.7 1.7 0 0 0-1 1.5V21a2 2 0 0 1-4 0v-.1a1.7 1.7 0 0 0-1-1.5 1.7 1.7 0 0 0-1.9.3l-.1.1a2 2 0 1 1-2.8-2.8l.1-.1a1.7 1.7 0 0 0 .3-1.9 1.7 1.7 0 0 0-1.5-1H3a2 2 0 0 1 0-4h.1a1.7 1.7 0 0 0 1.5-1 1.7 1.7 0 0 0-.3-1.9l-.1-.1a2 2 0 1 1 2.8-2.8l.1.1a1.7 1.7 0 0 0 1.9.3h0a1.7 1.7 0 0 0 1-1.5V3a2 2 0 0 1 4 0v.1a1.7 1.7 0 0 0 1 1.5 1.7 1.7 0 0 0 1.9-.3l.1-.1a2 2 0 1 1 2.8 2.8l-.1.1a1.7 1.7 0 0 0-.3 1.9v0a1.7 1.7 0 0 0 1.5 1H21a2 2 0 0 1 0 4h-.1a1.7 1.7 0 0 0-1.5 1z"></path></symbol>
  <symbol id="i-trophy" viewBox="0 0 24 24"><path d="M8 4h8v6a4 4 0 0 1-8 0V4z"></path><path d="M8 6H5a2 2 0 0 0 3 3M16 6h3a2 2 0 0 1-3 3"></path><path d="M10 14v3h4v-3M7 21h10M9 17h6"></path></symbol>
  <symbol id="i-edit" viewBox="0 0 24 24"><path d="M4 20h4l10-10-4-4L4 16v4z"></path><path d="M14 6l4 4"></path></symbol>
  <symbol id="i-heart-filled" viewBox="0 0 24 24"><path d="M12 20s-7-4.5-7-10a4 4 0 0 1 7-2.6A4 4 0 0 1 19 10c0 5.5-7 10-7 10z" fill="currentColor"></path></symbol>
</svg>